<?xml version="1.0" encoding="utf-8"?>
<!-- Generator: Adobe Illustrator 24.0.2, SVG Export Plug-In . SVG Version: 6.00 Build 0)  -->
<svg version="1.1" id="Capa_1" xmlns="http://www.w3.org/2000/svg" xmlns:xlink="http://www.w3.org/1999/xlink" x="0px" y="0px"
	 viewBox="0 0 1040 400" style="enable-background:new 0 0 1040 400;" xml:space="preserve">
<path d="M332.3,327.3c2.1-6.4,3.9-12.2,5.8-18c3.9-11.7,7.7-23.3,11.7-34.9c3.1-9,6.2-18,9.4-26.9c3.5-9.6,6.8-19.3,10.7-28.8
	c3.8-9.4,8-18.7,12.4-27.8c8.1-16.9,16.1-34,24.8-50.6c7.2-13.6,15.3-26.7,23-40c5.8-10.1,11.6-20.3,17.4-30.4
	c1.6-2.8,3.7-4.4,7.3-4.3c9.1,0.2,18.2,0,27.4,0.1c4.8,0,5.2,0.7,5.9,5.4c1.2,7.9,2.7,15.7,4,23.6c1.2,6.9,2.2,13.8,3.6,20.7
	c1.6,8.1,3.6,16.1,5.3,24.1c1.3,6.1,2.4,12.3,3.8,18.4c0.9,4,1.9,8,3,12c2,7.3,4,14.7,6.3,21.9c2.4,7.4,5.3,14.6,7.9,21.9
	c2.1,5.9,3.9,11.9,6.6,17.5c9.2,20,18.6,39.9,28.2,59.7c4.3,8.9,9.4,17.4,13.9,26.2c1.6,3.1,2.7,6.6,4.3,10.4c-7.5,0-14.3,0-21.1,0
	c-4.4,0-8.9-0.1-13.3,0c-3.5,0.1-5.6-0.9-7.3-4.4c-5.2-10.3-11.3-20.1-16.4-30.4c-5.8-11.5-11.1-23.2-16.3-35
	c-3.9-8.9-7.4-17.9-10.6-27.1c-3-8.7-5.3-17.7-7.8-26.5c-2.7-9.6-5.3-19.3-7.6-29c-1.6-6.8-2.3-13.8-3.6-20.7
	c-1.3-7.2-2.8-14.4-4-21.7c-0.9-5.1-1.4-10.2-2-15.3c-0.8-6.8-1.5-13.7-2.3-21.1c-0.7,0.7-1.6,1.3-2,2.2
	c-5.9,13-11.4,26.1-17.6,38.9c-7.4,15.2-15.6,30.1-23,45.3c-4.7,9.7-9,19.6-13.2,29.5c-4.5,10.5-8.9,21.1-12.8,31.8
	c-3.6,9.7-6.7,19.6-9.8,29.5c-3.5,11.5-6.8,23-10.1,34.6c-1.8,6.4-3.4,12.8-5.1,19.2C356.9,327.3,345.1,327.3,332.3,327.3z"/>
<path d="M707.5,301.3c-0.7,0.6-1.3,1.6-2,1.7c-4.6,0.6-9.2,1-13.8,1.6c-4.3,0.6-8.6,1.5-12.9,2.3c-0.6,0.1-1.2,0.3-1.8,0.4
	c-8.8,0.6-17.5,1.6-26.3,1.6c-2.9,0-6.1-2.2-8.6-4c-5.8-4.2-11.5-8.6-16.7-13.5c-13.3-12.4-26.6-24.8-39.2-37.9
	c-7.6-7.9-13.9-17.1-20.6-25.9c-4.4-5.8-8.4-11.9-12.8-17.7c-1.9-2.6-4.2-4.9-8.2-3.1c-2.7,1.2-4.4,0.1-5.5-2.8
	c-1.6-4.4-3.7-8.6-5.6-12.9c-1.2-2.7-0.8-3.9,2.3-5.3c8.4-3.7,16.7-7.7,24.5-12.4c11-6.7,21.6-14,32.1-21.4
	c4.8-3.4,9.1-7.6,13.5-11.5c5.7-5.1,11.3-10.4,17.1-15.4c1.3-1.1,3.4-1.7,5.2-1.8c8.5-0.2,17-0.1,25.5,0c1,0,2,0.6,3,1
	c-0.4,1.1-0.4,2.5-1.2,3.2c-7.5,7.7-14.9,15.5-22.9,22.8c-5.7,5.2-12.2,9.6-18.4,14.4c-6.3,4.8-12.5,9.7-18.9,14.3
	c-5,3.5-10.4,6.5-15.5,9.8c-2,1.3-3.8,2.8-1.7,5.5c2.4,3.2,4.6,6.5,7.2,9.6c3.7,4.6,7.4,9.2,11.6,13.4c10.8,11,21.5,22.2,32.8,32.7
	c7.8,7.2,16.5,13.5,25.1,19.8c6.8,5,14,9.7,21.2,14.1c7,4.2,14.3,8,21.5,11.9C700.7,297.5,703.7,299.2,707.5,301.3z"/>
<path d="M477.1,242.1c-0.3,0.7-0.4,1.9-1,2.8c-7.5,11.1-15,22.2-22.8,33.1c-0.9,1.3-4.3,1.9-6,1.4c-7.8-2.8-15.5-6-23.2-9.2
	c-5.7-2.3-11.5-4.7-17.2-7.1c-3.8-1.7-4.3-4.1-1.3-7.1c5.8-5.8,11.5-11.7,17.4-17.4c12.4-12,24.9-23.9,37.4-35.9
	c0.9-0.8,2.6-2,3.3-1.6c1.1,0.6,2.1,2.1,2.4,3.4c1.2,4.8,1.7,9.9,3.1,14.6c2.1,7,4.9,13.9,7.3,20.8
	C476.9,240.4,476.9,241.1,477.1,242.1z"/>
<path d="M526.5,164.9c-4.7,0.1-3.9-4.1-4.7-6.5c-2.4-7.5-4.5-15.1-6.1-22.8c-0.8-3.6-0.6-7.6-0.1-11.3c0.2-1.5,2.6-3.6,4.1-3.8
	c3-0.3,6.2,0.6,9.3,0.9c3.9,0.3,7.7,0.5,12.4,0.7C538.4,137.1,533.3,151.1,526.5,164.9z"/>
</svg>
