<svg id="Capa_1" data-name="Capa 1" xmlns="http://www.w3.org/2000/svg" viewBox="0 0 1040 400"><defs><style>.cls-1{fill:#1d1d1b;}</style></defs><title>1</title><path class="cls-1" d="M407.585,96.581l-2.973,18.2A14.663,14.663,0,0,1,383.7,125.587q-3.009-1.46-6.136-2.645a73.668,73.668,0,0,0-26.337-4.794q-23.275,0-38.362,16.236t-15.094,41.43q0,22.758,12.661,35.228t35.805,12.476a91.405,91.405,0,0,0,20.525-2.432l.211-.048a14.915,14.915,0,0,1,18.086,16.9l-2.406,14.946a14.529,14.529,0,0,1-11.013,11.944q-5.554,1.253-11.658,2.1a183.292,183.292,0,0,1-25,1.6q-40.021,0-64.127-24.812t-24.1-65.85a114.87,114.87,0,0,1,6.2-37.785,105.726,105.726,0,0,1,18.219-32.67,91.649,91.649,0,0,1,35.1-26.216q21.033-9.079,47.122-9.077a122.054,122.054,0,0,1,45.367,8.548A14.536,14.536,0,0,1,407.585,96.581Z"/><path class="cls-1" d="M492.2,246.534a64.723,64.723,0,0,1-20.775,16.427,55.545,55.545,0,0,1-24.617,5.567q-22.252,0-36.506-16.754T396.037,208.3q0-33.5,19.311-55.627t48.2-22.119a50.988,50.988,0,0,1,24.04,5.561q10.615,5.567,19.185,17.2l.9-5.71a15.346,15.346,0,0,1,15.159-12.959h12.135a15.351,15.351,0,0,1,15.156,17.746l-15.6,98.461a15.346,15.346,0,0,1-15.155,12.944H507.424a15.345,15.345,0,0,1-15.228-17.26ZM441.945,203.82q0,12.408,7.547,19.947t19.948,7.548a28.463,28.463,0,0,0,22.566-10.551q9.014-10.551,9.016-26.4,0-12.025-7.542-19.5t-19.7-7.482a28.946,28.946,0,0,0-22.823,10.355q-9.015,10.367-9.013,26.088Z"/><path class="cls-1" d="M575.442,96.156a23.306,23.306,0,0,1,5.486-15.37,25.438,25.438,0,0,1,22.823-8.665,23.683,23.683,0,0,1,20.662,24.035,23.84,23.84,0,0,1-7.158,17.516q-8.4,8.4-21.206,6.947a20.763,20.763,0,0,1-10.218-4.115Q575.433,108.54,575.442,96.156Zm98.818,12.237q0-13.8,11.841-22.918a23.877,23.877,0,0,1,12.241-4.792q14.761-1.392,24.063,7.747,8.07,7.927,8.07,19.963"/><path class="cls-1" d="M613.687,160.934l-23.006,140.2a31.052,31.052,0,0,1-31.032,26.119l-65.545-.787a22.9,22.9,0,0,1-22.619-22.893h0a22.9,22.9,0,0,1,22.895-22.894l.239,0,53.478.565,20.819-127.484A22.671,22.671,0,0,1,591.3,134.665h0a22.673,22.673,0,0,1,22.383,26.269Z"/><path class="cls-1" d="M655.39,134.643h0a22.377,22.377,0,0,1,22.1,25.868l-4.357,27.583q-1.534,10.615-2.427,17.711t-.9,9.267q0,9.207,4.413,14.071T687.077,234q19.69,0,26.6-44.625.377-2.427.637-3.706l5.075-32.136a22.378,22.378,0,0,1,22.1-18.887h.092A22.376,22.376,0,0,1,763.687,160.5l-5.132,32.574-.381,2.687q-6.779,41.558-21.1,55.5a58.535,58.535,0,0,1-22.185,13.108,92.6,92.6,0,0,1-29.605,4.409q-28.514,0-44.946-12.913t-16.433-35.037a116.044,116.044,0,0,1,.9-12.852q.893-7.736,3.579-23.844l4.91-30.651A22.379,22.379,0,0,1,655.39,134.643Z"/><path class="cls-1" d="M771.925,261.487h-4.273l2.538-16.08h4.284a21.774,21.774,0,0,1,2.877.138,5.708,5.708,0,0,1,1.638.466,4.14,4.14,0,0,1,1.845,1.608,4.742,4.742,0,0,1,.626,2.49,4.855,4.855,0,0,1-1.193,3.345,5.37,5.37,0,0,1-3.278,1.686l3.91,6.349H776l-3.109-6.141Zm1.373-8.733h1.349a2.923,2.923,0,0,0,1.956-.583,2.086,2.086,0,0,0,.681-1.68,1.732,1.732,0,0,0-.638-1.5,3.5,3.5,0,0,0-2.042-.467h-.637Z"/><path class="cls-1" d="M774.549,239.141a14.923,14.923,0,1,0,14.929,14.917h0a14.92,14.92,0,0,0-14.925-14.916Zm0,26.753a11.837,11.837,0,1,1,11.836-11.838h0A11.841,11.841,0,0,1,774.549,265.9Z"/><path class="cls-1" d="M608,315.546a5.29,5.29,0,0,1,7.374-1.266l.061.044a15.429,15.429,0,0,0,1.548.963,11.491,11.491,0,0,0,5.517,1.44,5.773,5.773,0,0,0,3.773-1.152,3.73,3.73,0,0,0,1.408-3.038q0-2.559-5.693-5.532-.544-.289-.863-.449-5.532-2.877-7.579-5.531a10.263,10.263,0,0,1-2.047-6.46,14.9,14.9,0,0,1,4.685-11.352A16.9,16.9,0,0,1,628.26,278.8a20.847,20.847,0,0,1,7.5,1.376,21.972,21.972,0,0,1,2.071.917,5.308,5.308,0,0,1,2.4,7.111q-.073.147-.156.291h0A5.266,5.266,0,0,1,633,290.472c-.143-.078-.284-.155-.424-.224a8.554,8.554,0,0,0-3.839-1.056,4.716,4.716,0,0,0-3.2,1.1,3.437,3.437,0,0,0-1.279,2.7q0,1.983,4.8,4.445,1.695.864,2.621,1.408,4.928,2.716,6.847,5.55a12.354,12.354,0,0,1,1.919,7.084,15.054,15.054,0,0,1-5.213,12.008q-5.212,4.494-14.171,4.492a19.793,19.793,0,0,1-8.793-2,20.735,20.735,0,0,1-3.839-2.438,5.281,5.281,0,0,1-1.031-7.13Z"/><path class="cls-1" d="M643.223,324.146l2.966-18.744a2.293,2.293,0,0,0-2.266-2.652h0a2.3,2.3,0,0,1-2.266-2.654l.583-3.663a2.294,2.294,0,0,1,2.266-1.934h1.445a2.293,2.293,0,0,0,2.27-1.942l.841-5.478a2.3,2.3,0,0,1,2.268-1.946h6.724a2.3,2.3,0,0,1,2.294,2.3,2.328,2.328,0,0,1-.029.363l-.651,4.055a2.294,2.294,0,0,0,1.9,2.628,2.211,2.211,0,0,0,.363.028h.411a2.3,2.3,0,0,1,2.265,2.655l-.583,3.663a2.292,2.292,0,0,1-2.265,1.933h-1.867a2.294,2.294,0,0,0-2.266,1.938l-3.164,20.173A2.294,2.294,0,0,1,652.2,326.8h-6.709a2.292,2.292,0,0,1-2.265-2.655Z"/><path class="cls-1" d="M664.745,312.184a18.1,18.1,0,0,1,5.372-13.494,18.809,18.809,0,0,1,13.752-5.277q7.737,0,12.375,4.382t4.638,11.7a17.772,17.772,0,0,1-5.438,13.369q-5.437,5.244-14,5.244-7.583,0-12.138-4.349T664.745,312.184Zm18.9-9.5a7.082,7.082,0,0,0-5.645,2.8,10.356,10.356,0,0,0-2.318,6.828,6.528,6.528,0,0,0,1.695,4.732,5.835,5.835,0,0,0,4.078,1.749,7.756,7.756,0,0,0,6.267-2.692,10.342,10.342,0,0,0,2.287-6.922,6.483,6.483,0,0,0-1.712-4.75,6.238,6.238,0,0,0-4.652-1.743Z"/><path class="cls-1" d="M702.852,320.377l3.411-21.531a5.153,5.153,0,0,1,5.088-4.346h5.314a1.059,1.059,0,0,1,1.059,1.059,1.1,1.1,0,0,1-.011.152h0a1.053,1.053,0,0,0,1.784.9,10.067,10.067,0,0,1,1.622-1.279,10.767,10.767,0,0,1,5.884-1.6,7.614,7.614,0,0,1,.8.048q.448.048,1.407.207l-1.815,8.1a2.176,2.176,0,0,1-2.454,1.66h-.018a12.175,12.175,0,0,0-1.727-.129,6.725,6.725,0,0,0-5.2,2.063,12.173,12.173,0,0,0-2.606,6.38L713.823,322.1a5.553,5.553,0,0,1-5.487,4.7h0a5.556,5.556,0,0,1-5.484-6.423Z"/><path class="cls-1" d="M739.847,313.368v.735a6.4,6.4,0,0,0,1.567,4.668,6.121,6.121,0,0,0,4.572,1.6,9.231,9.231,0,0,0,3.983-.882,12.117,12.117,0,0,0,1.424-.8,4.177,4.177,0,0,1,5.215.623h0a4.227,4.227,0,0,1-1.156,6.78q-.814.39-1.678.7a23.371,23.371,0,0,1-8.043,1.312q-7.9,0-12.264-4.207T729.1,312.118q0-8.284,5.2-13.464t13.447-5.18q7.484,0,12.04,4.573t4.558,12.12c0,.1-.014.311-.035.573a2.847,2.847,0,0,1-2.832,2.625Zm13.815-6.556a6.024,6.024,0,0,0-1.759-4.156,5.84,5.84,0,0,0-4.221-1.535,6.59,6.59,0,0,0-4.238,1.5,9.187,9.187,0,0,0-2.83,4.189Z"/><path class="cls-1" d="M792.424,300.045l-.155.341a3.743,3.743,0,0,1-4.981,1.794l-.038-.018c-.257-.119-.508-.227-.756-.322a10.117,10.117,0,0,0-3.678-.719,4.339,4.339,0,0,0-2.541.7,2.063,2.063,0,0,0-1.01,1.73q0,1.471,3.326,2.749,1.471.544,2.3.928a18.114,18.114,0,0,1,6.492,4.174,7.98,7.98,0,0,1,1.855,5.388,9.875,9.875,0,0,1-3.933,8.171q-3.936,3.085-10.489,3.085a25.4,25.4,0,0,1-7.084-.974,24.784,24.784,0,0,1-3.161-1.155,3.708,3.708,0,0,1-1.852-4.9c.018-.039.036-.078.056-.117l.489-1a3.7,3.7,0,0,1,4.955-1.69l.036.017a21.808,21.808,0,0,0,2.212.994,11.809,11.809,0,0,0,4.156.833,4.487,4.487,0,0,0,2.719-.753,2.3,2.3,0,0,0,1.023-1.934q0-1.824-4.7-3.742-1.408-.574-2.175-.895a14.018,14.018,0,0,1-5.31-3.615,7.511,7.511,0,0,1-1.566-4.86,9.453,9.453,0,0,1,3.869-7.707,15.515,15.515,0,0,1,9.946-3.069,20.932,20.932,0,0,1,7.982,1.569,3.729,3.729,0,0,1,2.073,4.849Q792.457,299.972,792.424,300.045Z"/></svg>