<svg id="Capa_1" data-name="Capa 1" xmlns="http://www.w3.org/2000/svg" viewBox="0 0 1040 400"><defs><style>.cls-1{fill:#1d1d1b;}</style></defs><title>1</title><path class="cls-1" d="M441.4,101.811c-2.135,29.369-27.882,38.167-59.192,38.167-32.6-.065-59.515-9.51-59.386-42.437V91.2c-.129-32.862,26.782-42.307,59.385-42.436,31.31.064,57.057,8.862,59.192,38.167H406.663c-3.17-8.539-12.81-10.545-24.453-10.545-13.844.194-25.618,2.653-25.424,16.949v2.135c-.194,14.167,11.58,16.755,25.424,16.949,11.645,0,21.348-2.07,24.453-10.609Z"/><path class="cls-1" d="M573.823,91.2v6.34c.129,32.863-26.653,42.372-59.322,42.437-32.733-.065-59.515-9.574-59.385-42.437V91.2c-.13-32.927,26.652-42.372,59.385-42.436C547.236,48.765,573.823,58.339,573.823,91.2Zm-33.9,2.071c.194-14.167-11.58-16.755-25.424-16.949-13.908.194-25.681,2.781-25.487,16.949v2.134c-.194,14.232,11.579,16.82,25.487,17.014,13.844-.194,25.618-2.78,25.424-17.014Z"/><path class="cls-1" d="M382.532,190.169c24.258,1.229,58.35,2.911,58.286,24.712,0,24.837-28.464,30.726-59,30.726-30.469-.063-55.763-3.752-59-30.726h35.516c3.881,6.727,12.873,8.472,23.482,8.472,10.545,0,23.482-1.745,23.482-8.472,0-3.817-10.544-4.4-24.192-5.046-24.259-1.23-58.351-2.911-58.286-24.648,0-24.841,28.464-30.792,59-30.792,30.469.194,55.763,3.623,59,30.792H405.3c-3.881-6.857-12.873-8.474-23.482-8.474-10.545,0-23.483,1.553-23.483,8.474C358.338,189,368.882,189.522,382.532,190.169Z"/><path class="cls-1" d="M456.305,156.659H573.1v22.254H490.2V190.04h82.9v20.118H490.2v11.127h82.9V243.6h-116.8Z"/><path class="cls-1" d="M441.4,313.07c-2.135,29.369-27.882,38.167-59.192,38.167-32.6-.063-59.515-9.511-59.386-42.437v-6.339c-.129-32.863,26.782-42.308,59.385-42.437,31.31.066,57.057,8.866,59.192,38.167H406.663c-3.17-8.539-12.81-10.546-24.453-10.546-13.844.2-25.618,2.654-25.424,16.952v2.133c-.194,14.169,11.58,16.757,25.424,16.949,11.645,0,21.348-2.07,24.453-10.609Z"/><path class="cls-1" d="M490.76,319.409V349.1h-33.9V262.16h33.9v29.691h50.912V262.16h33.964V349.1H541.672V319.409Z"/><path class="cls-1" d="M630.234,262.286h40.3l46.643,86.944H679.011l-6.858-14.876H628.617L621.76,349.23H583.593Zm8.216,50.85h23.871l-11.9-25.684Z"/><path class="cls-1" d="M660.737,105.562c-8.989,2.135-16.171,4.27-18.759,7.439h55.31v24.841H588.415V123.157c0-19.86,29.3-27.236,51.691-32.54,13.648-3.363,24.58-6.016,24.58-10.609,0-3.687-5.567-6.4-17.66-6.4-12.613.129-23.418,2-23.222,10.092H589.771c0-29.3,22.9-34.933,55.83-34.933,33.441,0,53.107,7.827,53.107,29.046C698.708,95.924,677.427,101.487,660.737,105.562Z"/><path class="cls-1" d="M660.737,211.192c-8.989,2.137-16.171,4.27-18.759,7.438h55.31v24.843H588.415V228.791c0-19.86,29.3-27.239,51.691-32.54,13.648-3.364,24.58-6.018,24.58-10.609,0-3.689-5.567-6.406-17.66-6.406-12.613.129-23.418,2.006-23.222,10.092H589.771c0-29.305,22.9-34.933,55.83-34.933,33.441,0,53.107,7.827,53.107,29.046C698.708,201.552,677.427,207.119,660.737,211.192Z"/></svg>