<svg id="Capa_1" data-name="Capa 1" xmlns="http://www.w3.org/2000/svg" viewBox="0 0 1040 400"><defs><style>.cls-1{fill:#1d1d1b;}</style></defs><title>1</title><path class="cls-1" d="M444.961,305.58c-9.868-3.342-20.141-5.913-27.736-14.618,1.609-1.726,3.173-3.51,4.849-5.183q82.568-82.4,165.076-164.854c11.649-11.7,23.224-22.987,40.144-26.5h11.764c10.162,3.173,20.721,5.586,28.379,14.694-1.716,1.844-3.277,3.635-4.955,5.309q-83.239,83.061-166.395,166.205c-11.37,11.436-22.949,21.785-39.362,24.952Z"/><path class="cls-1" d="M184.7,295.316c.548-1.6,1.16-3.176,1.636-4.794,6.28-21.34,24.256-35.216,46.561-35.916.734-.023,1.469,0,2.2-.013,10.49-.207,22.112,2.315,31.148-1.407,8.792-3.621,14.952-13.621,22.239-20.849,9.01-8.938,17.991-17.9,27.72-27.593a48.645,48.645,0,0,1,.675,5.346c.04,19.042.183,38.088-.133,57.125-.049,3-2.216,5.972-3.462,8.934-.174.414-.674.693-1.025,1.033-8.752,8.486-16.162,20.164-26.64,24.548-10.228,4.279-23.591,1.2-35.577,1.188-21.782-.026-43.564-.174-65.345-.27Z"/><path class="cls-1" d="M759.378,110.451c-1.126,1.224-1.9,2.127-2.735,2.964Q691.194,178.724,625.7,243.991c-20.877,20.727-52.12,21.213-71.641.6,10.218-9.991,20.545-19.94,30.709-30.052,34.678-34.5,69.2-69.166,103.979-103.568C708.823,91.118,738.082,90.852,759.378,110.451Z"/><path class="cls-1" d="M657.99,236.436c42.692-42.655,84.776-85.25,127.528-127.169,19.046-18.674,49.235-17.543,69.786,2.654-2.049,1.289-4.423,2.25-6.1,3.913Q788.9,175.818,728.691,235.907C708.412,256.03,677.643,256.273,657.99,236.436Z"/><path class="cls-1" d="M380.978,233.894c2.5-2.347,4.265-3.926,5.941-5.6q58.7-58.538,117.413-117.059c20.285-20.111,49.466-20.61,69.412-1.257-1.391,1.543-2.731,3.175-4.218,4.659Q477.875,206.1,386.283,297.628a15.943,15.943,0,0,1-12.824,5.189c-13.426-.342-26.867-.113-40.83-.113,0-38.054,0-75.529,0-113C353.328,185.169,376.505,205.822,380.978,233.894Z"/><path class="cls-1" d="M386.051,203.423c-8.292-16.186-21.017-25.5-38.235-28.543L376.248,146.9l-1.309-2.6c-2.478,0-4.959.068-7.435-.011-13.921-.443-28.115.638-41.7-1.741-22.039-3.86-37.6-24.645-36.587-46.666h7.074c43.605,0,87.211.138,130.814-.086,12.8-.065,22.758,4.229,27.714,16.312,4.939,12.043,1,22.147-8.142,31.073C426.55,162.83,406.753,182.812,386.051,203.423Z"/></svg>