<svg id="Capa_1" data-name="Capa 1" xmlns="http://www.w3.org/2000/svg" viewBox="0 0 1040 400"><defs><style>.cls-1{fill:#1d1d1b;}</style></defs><title>1</title><path class="cls-1" d="M476.606,347.545H383.4q-12.451,0-15.911,2.893t-3.961,11.32H359V298.239h4.529q.251,7.8,4.527,11.572,2.892,2.514,15.345,2.515h68.677q12.451,0,15.911-2.893t3.962-11.194h4.654Zm56.979-17.609a19.433,19.433,0,1,1-38.866,0A19.323,19.323,0,0,1,514,310.564h.094a18.886,18.886,0,0,1,13.772,5.66A18.572,18.572,0,0,1,533.585,329.936Z"/><path class="cls-1" d="M389.628,101.774v32.715q0,9.471,1.162,11.923a8.509,8.509,0,0,0,4.089,3.917q2.926,1.466,10.933,1.464v3.185H346.067v-3.185q8.092,0,10.977-1.507a8.789,8.789,0,0,0,4.046-3.917q1.163-2.409,1.162-11.88V58.73q0-9.469-1.162-11.923A8.505,8.505,0,0,0,357,42.89q-2.928-1.463-10.934-1.463V38.242H400.3q21.177,0,30.991,2.926a31.229,31.229,0,0,1,16.012,10.8,28.984,28.984,0,0,1,6.2,18.466,27.58,27.58,0,0,1-9.3,21.35q-5.94,5.338-16.615,8.006l28.065,39.514q5.508,7.663,7.834,9.556a14.587,14.587,0,0,0,8.178,2.927v3.185h-36.76l-37.618-53.2Zm0-57.248V95.662h4.907q11.964,0,17.9-2.2a17.842,17.842,0,0,0,9.342-7.919q3.4-5.725,3.4-14.937,0-13.342-6.241-19.714t-20.1-6.37Z"/><path class="cls-1" d="M546.567,74.485V137.5q0,9.212,1.722,11.493t6.974,2.884v3.1h-32.8V144.213a41.42,41.42,0,0,1-11.536,10.029,26.543,26.543,0,0,1-12.913,3.142,19,19,0,0,1-12.1-4.174,20.4,20.4,0,0,1-7.1-9.772q-1.807-5.595-1.807-19.541V91.96q0-9.124-1.679-11.364t-7.016-2.926V74.485h32.8v55.009q0,8.609.818,11.1a7.348,7.348,0,0,0,2.583,3.788,6.741,6.741,0,0,0,4.089,1.292,9.994,9.994,0,0,0,5.595-1.636q3.443-2.238,8.264-9.039V91.961q0-9.123-1.678-11.364t-7.016-2.926V74.486Z"/><path class="cls-1" d="M436.844,250.278l3.275,2.536q-6.974,13.1-17.381,19.493A41.605,41.605,0,0,1,400.6,278.7q-19.758,0-31.591-14.9t-11.834-35.817q0-20.181,10.777-35.5,13-18.489,35.818-18.491,15.318,0,24.354,7.714t9.034,17.222a12.889,12.889,0,0,1-3.645,9.614,13.028,13.028,0,0,1-9.563,3.593,13.863,13.863,0,0,1-10.3-4.12q-4.067-4.12-5.019-14.687-.635-6.657-3.064-9.3a7.515,7.515,0,0,0-5.705-2.642q-5.071,0-8.664,5.388-5.495,8.139-5.494,24.935a80.447,80.447,0,0,0,4.438,26.679q4.437,12.732,12.15,18.966a21.629,21.629,0,0,0,13.735,4.543,20.919,20.919,0,0,0,9.827-2.43Q430.5,257.04,436.844,250.278Z"/><path class="cls-1" d="M525.247,259.175l8.313,3.332c-4.649,8.735-16.714,5.538-23.651,9.8a41.6,41.6,0,0,1-22.135,6.392q-19.758,0-31.591-14.9t-11.834-35.818q0-20.18,10.777-35.5,13-18.489,35.818-18.49,15.318,0,24.354,7.713t9.033,17.223a12.894,12.894,0,0,1-3.644,9.614,13.036,13.036,0,0,1-9.563,3.593,13.862,13.862,0,0,1-10.3-4.121q-4.066-4.121-5.019-14.687-.635-6.656-3.064-9.3a7.516,7.516,0,0,0-5.706-2.64q-5.071,0-8.664,5.388-5.495,8.139-5.494,24.935a80.446,80.446,0,0,0,4.437,26.679q4.438,12.732,12.151,18.966c3.874,3.029,10.713,6.445,16,6.445"/><path class="cls-1" d="M656,178.177c5.576-.4,10.383-1.35,15.067-.922a53.635,53.635,0,0,1,14.358,3.559c3.232,1.258,3.284,4.235.527,6.512-17.119,14.138-33.705,29.027-51.675,41.992-10.235,7.384-22.655,11.082-35.655,3.884-2.254-1.248-6.962-.532-9.183,1.109-5.82,4.3-10.892,9.613-17,15.2a43.076,43.076,0,0,0,4.881,1.728c2.86.615,6.28.219,8.552,1.674,7.221,4.623,12.409,2.108,17.979-3.092,6.531-6.1,14.7-5.549,21.758-1.642a101.98,101.98,0,0,1,19.5,14.611c6.578,6.1,5.656,10.9-1.895,15.624a15.67,15.67,0,0,1-5.163,2.229c-5.709,1.089-7.9,3.766-5.737,9.679.816,2.232.462,5,.232,7.487-.517,5.575-3.1,7.378-8.5,5.8-6.643-1.946-13.278-3.972-19.779-6.34-13.071-4.76-17.685-12.561-15.376-26.256.88-5.213-1.085-7.864-5.8-9.47a43.342,43.342,0,0,0-25.433-.748c-9.341,2.461-18.431,5.866-27.764,8.358-6.657,1.778-13.529,2.759-20.319,4.021-1.218.227-2.986.635-3.668.027a69.373,69.373,0,0,1-5.8-6.462c1.783-1,3.448-2.436,5.359-2.934,13.159-3.431,26.773-5.568,39.463-10.237a93.357,93.357,0,0,0,41.856-30.1c2.653-3.393,4.107-8.206,4.776-12.57,1.589-10.353,1.86-20.915,3.6-31.236,3.326-19.768,14.222-34.747,31.146-45.2,5.647-3.486,11.894-6.031,17.964-8.791,4.21-1.913,7.225-.06,9.42,3.669,8.627,14.656,13.413,29.553,3.1,45.509C656.366,175.486,656.4,176.412,656,178.177Zm-29.575,33.94c4.417-1.7,5.986-5.011,4.516-9.466-1.611-4.885-5.574-6.315-10.066-4.908-5.089,1.592-5.48,5.75-4.109,10.266C618.322,213.139,622.055,213.237,626.425,212.117Z"/><path class="cls-1" d="M558.626,177.238c2.746-3.342,4.957-6.533,7.671-9.216,3.886-3.841,5.279-3.293,7.147,1.645,5.284,13.97,7.093,28.135,2.852,42.716a39.312,39.312,0,0,1-1.737,4.872c-1.7,3.864-4.781,5.434-8.758,4.173-9.5-3.011-18.111-7.2-23.207-16.631-5.263-9.742-5.282-19.587-1.44-29.572,2.141-5.562,7.867-6.564,12.79-2.569C555.488,173.91,556.809,175.443,558.626,177.238Zm5.876,18.984c3.133-1.245,4.882-3.44,3.988-6.441-.99-3.323-3.958-3.351-6.768-2.491-2.756.844-3.945,2.767-2.994,5.642.973,2.943,3.008,4.029,5.774,3.291Z"/><path class="cls-1" d="M679.334,134.865c7.326-2.2,12.1-.057,13.992,6.293,1.97,6.6-.981,12.755-7.077,14.757-6.241,2.049-12.014-1.284-13.97-8.065C670.385,141.281,672.8,136.83,679.334,134.865Z"/></svg>